<mxfile host="app.diagrams.net" agent="Mozilla/5.0 (Windows NT 10.0; Win64; x64) AppleWebKit/537.36 (KHTML, like Gecko) Chrome/128.0.0.0 Safari/537.36" version="24.7.7">
  <diagram id="Ht1M8jgEwFfnCIfOTk4-" name="Page-1">
    <mxGraphModel dx="1878" dy="1168" grid="1" gridSize="10" guides="1" tooltips="1" connect="1" arrows="1" fold="1" page="1" pageScale="1" pageWidth="827" pageHeight="1169" math="0" shadow="0">
      <root>
        <mxCell id="0" />
        <mxCell id="1" parent="0" />
        <mxCell id="-QjtrjUzRDEMRZ5MF8oH-47" value="Solution System Design" style="text;html=1;resizable=0;points=[];autosize=1;align=left;verticalAlign=top;spacingTop=-4;fontSize=30;fontStyle=1" parent="1" vertex="1">
          <mxGeometry x="12" y="65.5" width="340" height="40" as="geometry" />
        </mxCell>
        <mxCell id="-QjtrjUzRDEMRZ5MF8oH-48" value="Highlights What Features of the System Can be Found and Where" style="text;html=1;resizable=0;points=[];autosize=1;align=left;verticalAlign=top;spacingTop=-4;fontSize=16" parent="1" vertex="1">
          <mxGeometry x="12" y="115.5" width="490" height="30" as="geometry" />
        </mxCell>
        <mxCell id="SCVMTBWpLvtzJIhz15lM-1" value="" style="line;strokeWidth=2;html=1;fontSize=14;" parent="1" vertex="1">
          <mxGeometry x="8" y="140.5" width="1060" height="10" as="geometry" />
        </mxCell>
        <mxCell id="GZ2nduHU5Fvb0LEmvscG-1" value="" style="swimlane;startSize=0;" vertex="1" parent="1">
          <mxGeometry x="8" y="170" width="281" height="270" as="geometry" />
        </mxCell>
        <mxCell id="GZ2nduHU5Fvb0LEmvscG-7" value="" style="verticalLabelPosition=bottom;html=1;verticalAlign=top;align=center;strokeColor=none;fillColor=#00BEF2;shape=mxgraph.azure.script_file;pointerEvents=1;" vertex="1" parent="GZ2nduHU5Fvb0LEmvscG-1">
          <mxGeometry x="80.25" y="100" width="83" height="78" as="geometry" />
        </mxCell>
        <mxCell id="GZ2nduHU5Fvb0LEmvscG-8" value="Script file ensures normalization of .php arguments to prevent XSS" style="text;html=1;align=center;verticalAlign=middle;whiteSpace=wrap;rounded=0;" vertex="1" parent="GZ2nduHU5Fvb0LEmvscG-1">
          <mxGeometry x="42" y="178" width="159.5" height="62" as="geometry" />
        </mxCell>
        <mxCell id="GZ2nduHU5Fvb0LEmvscG-3" value="&lt;font style=&quot;font-size: 18px;&quot;&gt;Features within Application Code&lt;/font&gt;" style="text;html=1;align=center;verticalAlign=middle;resizable=0;points=[];autosize=1;strokeColor=none;fillColor=none;" vertex="1" parent="GZ2nduHU5Fvb0LEmvscG-1">
          <mxGeometry x="-4.5" width="290" height="40" as="geometry" />
        </mxCell>
        <mxCell id="GZ2nduHU5Fvb0LEmvscG-2" value="" style="swimlane;startSize=0;" vertex="1" parent="1">
          <mxGeometry x="310" y="170" width="780" height="500" as="geometry" />
        </mxCell>
        <mxCell id="GZ2nduHU5Fvb0LEmvscG-4" value="&lt;font style=&quot;font-size: 18px;&quot;&gt;Features Within AWS Cloud&lt;/font&gt;" style="text;html=1;align=center;verticalAlign=middle;resizable=0;points=[];autosize=1;strokeColor=none;fillColor=none;" vertex="1" parent="GZ2nduHU5Fvb0LEmvscG-2">
          <mxGeometry x="270" width="250" height="40" as="geometry" />
        </mxCell>
        <mxCell id="GZ2nduHU5Fvb0LEmvscG-16" value="" style="outlineConnect=0;dashed=0;verticalLabelPosition=bottom;verticalAlign=top;align=center;html=1;shape=mxgraph.aws3.virtual_private_cloud;fillColor=#F58534;gradientColor=none;" vertex="1" parent="GZ2nduHU5Fvb0LEmvscG-2">
          <mxGeometry x="104" y="40.00000000000001" width="79.5" height="54" as="geometry" />
        </mxCell>
        <mxCell id="GZ2nduHU5Fvb0LEmvscG-18" value="Subnet:ACL" style="shape=mxgraph.ibm.box;prType=subnet;fontStyle=0;verticalAlign=top;align=left;spacingLeft=32;spacingTop=4;fillColor=#E6F0E2;rounded=0;whiteSpace=wrap;html=1;strokeColor=#00882B;strokeWidth=1;dashed=0;container=1;spacing=-4;collapsible=0;expand=0;recursiveResize=0;" vertex="1" parent="GZ2nduHU5Fvb0LEmvscG-2">
          <mxGeometry y="220" width="780" height="280" as="geometry" />
        </mxCell>
        <mxCell id="GZ2nduHU5Fvb0LEmvscG-17" value="" style="sketch=0;points=[[0,0,0],[0.25,0,0],[0.5,0,0],[0.75,0,0],[1,0,0],[0,1,0],[0.25,1,0],[0.5,1,0],[0.75,1,0],[1,1,0],[0,0.25,0],[0,0.5,0],[0,0.75,0],[1,0.25,0],[1,0.5,0],[1,0.75,0]];outlineConnect=0;fontColor=#232F3E;fillColor=#DD344C;strokeColor=#ffffff;dashed=0;verticalLabelPosition=bottom;verticalAlign=top;align=center;html=1;fontSize=12;fontStyle=0;aspect=fixed;shape=mxgraph.aws4.resourceIcon;resIcon=mxgraph.aws4.waf;" vertex="1" parent="GZ2nduHU5Fvb0LEmvscG-18">
          <mxGeometry x="10" y="24" width="78" height="78" as="geometry" />
        </mxCell>
        <mxCell id="GZ2nduHU5Fvb0LEmvscG-26" value="&lt;font style=&quot;font-size: 14px;&quot;&gt;Utilization of AWS&#39;s Web Application Firewall in Conjunction with subnet Access Control Lists allows us to protect our web application against external attacks.&lt;/font&gt;&lt;div style=&quot;font-size: 14px;&quot;&gt;&lt;ul style=&quot;&quot;&gt;&lt;li style=&quot;&quot;&gt;&lt;font style=&quot;font-size: 14px;&quot;&gt;SQL Injection: block requests to the web server which contain information consistent with SQL injection attacks&lt;/font&gt;&lt;/li&gt;&lt;li style=&quot;&quot;&gt;&lt;font style=&quot;font-size: 14px;&quot;&gt;Botnet Attacks: force all visitors to the site to pass a CAPTCHA &lt;b&gt;before&lt;/b&gt;&amp;nbsp;connecting to the site&lt;/font&gt;&lt;/li&gt;&lt;li style=&quot;&quot;&gt;&lt;font style=&quot;font-size: 14px;&quot;&gt;Spoofing and Amplification or HTTP Flood Attacks: impose rate-limits on all users, blocking traffic from a single user if they send too many requests in a defined period&lt;/font&gt;&lt;/li&gt;&lt;li style=&quot;&quot;&gt;&lt;font style=&quot;font-size: 14px;&quot;&gt;Cross-site scripting:&amp;nbsp; block requests to the web server which contain information consistent with XSS attacks&amp;nbsp;&lt;/font&gt;&lt;/li&gt;&lt;/ul&gt;&lt;/div&gt;" style="text;html=1;align=left;verticalAlign=top;whiteSpace=wrap;rounded=0;" vertex="1" parent="GZ2nduHU5Fvb0LEmvscG-18">
          <mxGeometry x="104" y="10" width="656" height="250" as="geometry" />
        </mxCell>
        <mxCell id="GZ2nduHU5Fvb0LEmvscG-19" value="" style="image;aspect=fixed;html=1;points=[];align=center;fontSize=12;image=img/lib/azure2/networking/Network_Security_Groups.svg;" vertex="1" parent="GZ2nduHU5Fvb0LEmvscG-2">
          <mxGeometry x="370" y="60" width="56.00000000000001" height="68" as="geometry" />
        </mxCell>
        <mxCell id="GZ2nduHU5Fvb0LEmvscG-20" value="" style="verticalLabelPosition=bottom;html=1;verticalAlign=top;strokeWidth=1;align=center;outlineConnect=0;dashed=0;outlineConnect=0;shape=mxgraph.aws3d.s3Bucket;fillColor=#4286c5;strokeColor=#57A2D8;aspect=fixed;" vertex="1" parent="GZ2nduHU5Fvb0LEmvscG-2">
          <mxGeometry x="630" y="20" width="61.5" height="63.800000000000004" as="geometry" />
        </mxCell>
        <mxCell id="GZ2nduHU5Fvb0LEmvscG-21" value="VPC prevents external entities from interacting with the Web Application and its resources and enforces limited access between external and internal facing entities" style="text;html=1;align=center;verticalAlign=middle;whiteSpace=wrap;rounded=0;" vertex="1" parent="GZ2nduHU5Fvb0LEmvscG-2">
          <mxGeometry x="49.75" y="104" width="200.25" height="66" as="geometry" />
        </mxCell>
        <mxCell id="GZ2nduHU5Fvb0LEmvscG-23" value="Security Groups enforce limited access between VPC subnets and prevent risky interaction with external IPs&amp;nbsp;" style="text;html=1;align=center;verticalAlign=middle;whiteSpace=wrap;rounded=0;" vertex="1" parent="GZ2nduHU5Fvb0LEmvscG-2">
          <mxGeometry x="303" y="140" width="190" height="62" as="geometry" />
        </mxCell>
        <mxCell id="GZ2nduHU5Fvb0LEmvscG-24" value="S3 Buckets enforce identity-based access control, allowing us to store our resources while controlling who can interact with them and hwo" style="text;html=1;align=center;verticalAlign=middle;whiteSpace=wrap;rounded=0;" vertex="1" parent="GZ2nduHU5Fvb0LEmvscG-2">
          <mxGeometry x="610" y="108" width="118" height="62" as="geometry" />
        </mxCell>
      </root>
    </mxGraphModel>
  </diagram>
</mxfile>
